<?xml version="1.0" standalone="no"?>
<!DOCTYPE svg PUBLIC "-//W3C//DTD SVG 20010904//EN"
 "http://www.w3.org/TR/2001/REC-SVG-20010904/DTD/svg10.dtd">
<svg version="1.0" xmlns="http://www.w3.org/2000/svg"
 width="360.000000pt" height="360.000000pt" viewBox="0 0 360.000000 360.000000"
 preserveAspectRatio="xMidYMid meet">
<metadata>
Created by potrace 1.14, written by Peter Selinger 2001-2017
</metadata>
<g transform="translate(0.000000,360.000000) scale(0.100000,-0.100000)"
fill="#000000" stroke="none">
<path d="M240 2915 l225 -225 456 0 455 0 146 -146 c81 -80 152 -152 159 -160
11 -13 -24 -52 -222 -250 l-234 -234 -162 162 -163 163 0 122 0 123 -220 0
-220 0 0 -213 0 -214 380 -380 c209 -209 380 -383 380 -387 0 -4 -69 -76 -154
-160 l-153 -152 247 -247 247 -247 1084 0 1084 0 -219 219 -218 218 -770 0
-770 1 -184 183 -184 184 77 77 78 78 152 -152 153 -153 316 -1 316 -1 -311
311 -311 311 77 78 78 77 307 -307 308 -308 0 315 0 315 -150 150 -150 150 52
51 c29 28 64 63 78 78 l24 27 -384 384 -385 385 -770 0 -770 0 225 -225z"/>
<path d="M2480 2525 l-155 -155 188 -188 187 -187 0 -435 0 -435 218 0 217 0
3 530 2 530 -247 247 c-136 137 -250 248 -253 248 -3 0 -75 -70 -160 -155z"/>
</g>
</svg>
